<svg width="29px" height="22px" viewBox="0 0 29 22" version="1.1" xmlns="http://www.w3.org/2000/svg" xmlns:xlink="http://www.w3.org/1999/xlink">
    <g id="Artboard" transform="translate(-1274.000000, -777.000000)" fill="#05386B" fill-rule="nonzero">
        <path d="M1302.35895,786.489157 L1293.41474,777.613425 C1292.59053,776.795525 1291.21684,776.795525 1290.39263,777.613425 C1289.56842,778.431325 1289.56842,779.794492 1290.39263,780.612392 L1295.67368,785.883305 L1276.13684,785.883305 C1274.94632,785.883305 1274,786.822375 1274,788.003787 C1274,789.185198 1274.94632,790.124269 1276.13684,790.124269 L1295.67368,790.124269 L1290.39263,795.364888 C1289.56842,796.182788 1289.56842,797.545955 1290.39263,798.363855 C1290.82,798.787952 1291.36947,799 1291.91895,799 C1292.46842,799 1293.01789,798.787952 1293.44526,798.363855 L1302.35895,789.518417 C1302.75579,789.124613 1303,788.579346 1303,788.003787 C1303,787.428227 1302.78632,786.88296 1302.35895,786.489157 Z" id="Path"></path>
    </g>
</svg>