<svg  viewBox="0 0 40 40" version="1.1" xmlns="http://www.w3.org/2000/svg" xmlns:xlink="http://www.w3.org/1999/xlink">
    <g id="Artboard" transform="translate(-1257.000000, -44.000000)" fill="#05386B" fill-rule="nonzero">
        <path d="M1273.4251,65.7142857 C1272.70798,68.1927048 1270.47585,70 1267.83333,70 C1265.19082,70 1262.95869,68.1927048 1262.24157,65.7142857 L1258.66782,65.7142857 C1257.74671,65.7142857 1257,64.9533746 1257,64 C1257,63.0532261 1257.74578,62.2857143 1258.66782,62.2857143 L1262.24157,62.2857143 C1262.95869,59.8072952 1265.19082,58 1267.83333,58 C1270.47585,58 1272.70798,59.8072952 1273.4251,62.2857143 L1295.33218,62.2857143 C1296.25329,62.2857143 1297,63.0466254 1297,64 C1297,64.9467739 1296.25422,65.7142857 1295.33218,65.7142857 L1273.4251,65.7142857 Z M1280.5749,76.2857143 C1281.29202,73.8072952 1283.52415,72 1286.16667,72 C1288.80918,72 1291.04131,73.8072952 1291.75843,76.2857143 L1295.33218,76.2857143 C1296.25329,76.2857143 1297,77.0466254 1297,78 C1297,78.9467739 1296.25422,79.7142857 1295.33218,79.7142857 L1291.75843,79.7142857 C1291.04131,82.1927048 1288.80918,84 1286.16667,84 C1283.52415,84 1281.29202,82.1927048 1280.5749,79.7142857 L1258.66782,79.7142857 C1257.74671,79.7142857 1257,78.9533746 1257,78 C1257,77.0532261 1257.74578,76.2857143 1258.66782,76.2857143 L1280.5749,76.2857143 Z M1280.5749,48.2857143 C1281.29202,45.8072952 1283.52415,44 1286.16667,44 C1288.80918,44 1291.04131,45.8072952 1291.75843,48.2857143 L1295.33218,48.2857143 C1296.25329,48.2857143 1297,49.0466254 1297,50 C1297,50.9467739 1296.25422,51.7142857 1295.33218,51.7142857 L1291.75843,51.7142857 C1291.04131,54.1927048 1288.80918,56 1286.16667,56 C1283.52415,56 1281.29202,54.1927048 1280.5749,51.7142857 L1258.66782,51.7142857 C1257.74671,51.7142857 1257,50.9533746 1257,50 C1257,49.0532261 1257.74578,48.2857143 1258.66782,48.2857143 L1280.5749,48.2857143 Z M1286.5,52 C1287.88071,52 1289,50.8807119 1289,49.5 C1289,48.1192881 1287.88071,47 1286.5,47 C1285.11929,47 1284,48.1192881 1284,49.5 C1284,50.8807119 1285.11929,52 1286.5,52 Z M1286.5,81 C1287.88071,81 1289,79.8807118 1289,78.5 C1289,77.1192882 1287.88071,76 1286.5,76 C1285.11929,76 1284,77.1192882 1284,78.5 C1284,79.8807118 1285.11929,81 1286.5,81 Z M1267.5,61 C1266.11929,61 1265,62.1192882 1265,63.5 C1265,64.8807118 1266.11929,66 1267.5,66 C1268.88071,66 1270,64.8807118 1270,63.5 C1270,62.1192882 1268.88071,61 1267.5,61 Z" id="Shape"></path>
    </g>
</svg>